<svg xmlns="http://www.w3.org/2000/svg" xmlns:xlink="http://www.w3.org/1999/xlink" width="180" height="185" viewBox="0 0 180 185">
  <defs>
    <circle id="feed-a" cx="7.5" cy="7.5" r="7.5"/>
    <circle id="feed-c" cx="7.5" cy="7.5" r="7.5"/>
    <circle id="feed-e" cx="7.5" cy="7.5" r="7.5"/>
    <circle id="feed-g" cx="7.5" cy="7.5" r="7.5"/>
  </defs>
  <g fill="none" fill-rule="evenodd">
    <path fill="#58A8F7" d="M0,2.99971296 C0,1.34301724 1.34537458,0 2.99263929,0 L177.007361,0 C178.66015,0 180,1.34382565 180,2.99971296 L180,185 L0,185 L0,2.99971296 Z" opacity=".097"/>
    <g transform="translate(69 135)">
      <mask id="feed-b" fill="#fff">
        <use xlink:href="#feed-a"/>
      </mask>
      <use fill="#58A8F7" opacity=".197" xlink:href="#feed-a"/>
      <path fill="#0D87FF" d="M7.5,21 C3.91014913,21 1,18.0898509 1,14.5 C1,10.9101491 3.91014913,8 7.5,8 C11.0898509,8 14,10.9101491 14,14.5 C14,18.0898509 11.0898509,21 7.5,21 Z M7.5,7 C6.11928813,7 5,5.88071187 5,4.5 C5,3.11928813 6.11928813,2 7.5,2 C8.88071187,2 10,3.11928813 10,4.5 C10,5.88071187 8.88071187,7 7.5,7 Z" mask="url(#feed-b)" opacity=".499"/>
    </g>
    <g transform="translate(69 26)">
      <mask id="feed-d" fill="#fff">
        <use xlink:href="#feed-c"/>
      </mask>
      <use fill="#58A8F7" opacity=".197" xlink:href="#feed-c"/>
      <path fill="#0D87FF" d="M7.5,21 C3.91014913,21 1,18.0898509 1,14.5 C1,10.9101491 3.91014913,8 7.5,8 C11.0898509,8 14,10.9101491 14,14.5 C14,18.0898509 11.0898509,21 7.5,21 Z M7.5,7 C6.11928813,7 5,5.88071187 5,4.5 C5,3.11928813 6.11928813,2 7.5,2 C8.88071187,2 10,3.11928813 10,4.5 C10,5.88071187 8.88071187,7 7.5,7 Z" mask="url(#feed-d)" opacity=".499"/>
    </g>
    <g transform="translate(69 62)">
      <mask id="feed-f" fill="#fff">
        <use xlink:href="#feed-e"/>
      </mask>
      <use fill="#58A8F7" opacity=".197" xlink:href="#feed-e"/>
      <path fill="#0D87FF" d="M7.5,21 C3.91014913,21 1,18.0898509 1,14.5 C1,10.9101491 3.91014913,8 7.5,8 C11.0898509,8 14,10.9101491 14,14.5 C14,18.0898509 11.0898509,21 7.5,21 Z M7.5,7 C6.11928813,7 5,5.88071187 5,4.5 C5,3.11928813 6.11928813,2 7.5,2 C8.88071187,2 10,3.11928813 10,4.5 C10,5.88071187 8.88071187,7 7.5,7 Z" mask="url(#feed-f)" opacity=".499"/>
    </g>
    <path fill="#0D87FF" d="M0,1.99201702 C0,0.891856397 0.894337654,0 1.99821383,0 L29.0017862,0 C30.1053692,0 31,0.900176167 31,1.99201702 L31,9.00798298 C31,10.1081436 30.1056623,11 29.0017862,11 L1.99821383,11 C0.894630804,11 0,10.0998238 0,9.00798298 L0,1.99201702 Z" opacity=".499" transform="translate(88 164)"/>
    <g transform="translate(88 135)">
      <rect width="82" height="24" fill="#58A8F7" opacity=".499" rx="2"/>
      <rect width="80" height="22" x="1" y="1" fill="#FFF" rx="1"/>
    </g>
    <g fill="#58A8F7" transform="translate(88 26)">
      <polygon points="0 0 50 0 50 5 0 5" opacity=".499"/>
      <polygon points="0 0 82 0 82 3 0 3" opacity=".197" transform="translate(0 10)"/>
      <polygon points="0 0 82 0 82 3 0 3" opacity=".197" transform="translate(0 17)"/>
      <polygon points="0 0 62 0 62 3 0 3" opacity=".197" transform="translate(0 24)"/>
    </g>
    <g fill="#58A8F7" transform="translate(88 62)">
      <polygon points="0 0 50 0 50 5 0 5" opacity=".499"/>
      <polygon points="0 0 82 0 82 3 0 3" opacity=".197" transform="translate(0 10)"/>
      <polygon points="0 0 82 0 82 3 0 3" opacity=".197" transform="translate(0 17)"/>
      <polygon points="0 0 62 0 62 3 0 3" opacity=".197" transform="translate(0 24)"/>
    </g>
    <g transform="translate(69 98)">
      <mask id="feed-h" fill="#fff">
        <use xlink:href="#feed-g"/>
      </mask>
      <use fill="#58A8F7" opacity=".197" xlink:href="#feed-g"/>
      <path fill="#0D87FF" d="M7.5,21 C3.91014913,21 1,18.0898509 1,14.5 C1,10.9101491 3.91014913,8 7.5,8 C11.0898509,8 14,10.9101491 14,14.5 C14,18.0898509 11.0898509,21 7.5,21 Z M7.5,7 C6.11928813,7 5,5.88071187 5,4.5 C5,3.11928813 6.11928813,2 7.5,2 C8.88071187,2 10,3.11928813 10,4.5 C10,5.88071187 8.88071187,7 7.5,7 Z" mask="url(#feed-h)" opacity=".499"/>
    </g>
    <g fill="#58A8F7" transform="translate(88 98)">
      <polygon points="0 0 50 0 50 5 0 5" opacity=".499"/>
      <polygon points="0 0 82 0 82 3 0 3" opacity=".197" transform="translate(0 10)"/>
      <polygon points="0 0 82 0 82 3 0 3" opacity=".197" transform="translate(0 17)"/>
      <polygon points="0 0 62 0 62 3 0 3" opacity=".197" transform="translate(0 24)"/>
    </g>
    <path fill="#58A8F7" d="M0,3.00947762 C0,1.34738902 1.34537458,0 2.99263929,0 L177.007361,0 C178.66015,0 180,1.33663106 180,3.00947762 L180,16 L0,16 L0,3.00947762 Z" opacity=".197"/>
    <path fill="#0D87FF" d="M2.5,5 C1.11928813,5 0,3.88071187 0,2.5 C0,1.11928813 1.11928813,0 2.5,0 C3.88071187,0 5,1.11928813 5,2.5 C5,3.88071187 3.88071187,5 2.5,5 Z M10.5,5 C9.11928813,5 8,3.88071187 8,2.5 C8,1.11928813 9.11928813,0 10.5,0 C11.8807119,0 13,1.11928813 13,2.5 C13,3.88071187 11.8807119,5 10.5,5 Z M18.5,5 C17.1192881,5 16,3.88071187 16,2.5 C16,1.11928813 17.1192881,0 18.5,0 C19.8807119,0 21,1.11928813 21,2.5 C21,3.88071187 19.8807119,5 18.5,5 Z" opacity=".499" transform="translate(5 6)"/>
    <g transform="translate(10 26)">
      <path fill="#58A8F7" d="M3.8458278,-1.55376046e-16 L45.1541722,1.55376046e-16 C46.4914503,-9.02779573e-17 46.9763797,0.139238417 47.4652686,0.400699056 C47.9541574,0.662159695 48.3378403,1.04584256 48.5993009,1.53473144 C48.8607616,2.02362033 49,2.50854969 49,3.8458278 L49,145.154172 C49,146.49145 48.8607616,146.97638 48.5993009,147.465269 C48.3378403,147.954157 47.9541574,148.33784 47.4652686,148.599301 C46.9763797,148.860762 46.4914503,149 45.1541722,149 L3.8458278,149 C2.50854969,149 2.02362033,148.860762 1.53473144,148.599301 C1.04584256,148.33784 0.662159695,147.954157 0.400699056,147.465269 C0.139238417,146.97638 6.01853049e-17,146.49145 -1.03584031e-16,145.154172 L1.03584031e-16,3.8458278 C-6.01853049e-17,2.50854969 0.139238417,2.02362033 0.400699056,1.53473144 C0.662159695,1.04584256 1.04584256,0.662159695 1.53473144,0.400699056 C2.02362033,0.139238417 2.50854969,9.02779573e-17 3.8458278,-1.55376046e-16 Z" opacity=".197"/>
      <path fill="#0D87FF" d="M0,1.99201702 C0,0.891856397 0.896278629,0 2.00239962,0 L34.9976004,0 C36.1034952,0 37,0.900176167 37,1.99201702 L37,9.00798298 C37,10.1081436 36.1037214,11 34.9976004,11 L2.00239962,11 C0.896504848,11 0,10.0998238 0,9.00798298 L0,1.99201702 Z" opacity=".499" transform="translate(6 129)"/>
      <polygon fill="#58A8F7" points="0 0 8 9 8 19 13 16 13 9 21 0" opacity=".197" transform="translate(14 16)"/>
      <g transform="translate(6 47)">
        <rect width="37" height="11" fill="#58A8F7" opacity=".499" rx="2"/>
        <rect width="35" height="9" x="1" y="1" fill="#FFF" rx="1"/>
        <polygon fill="#58A8F7" points="0 0 20 0 20 3 0 3" opacity=".197" transform="translate(4 4)"/>
        <polygon fill="#0D87FF" points="2.5 3 0 0 5 0" transform="translate(27 4)"/>
      </g>
      <g transform="translate(6 63)">
        <rect width="37" height="11" fill="#58A8F7" opacity=".499" rx="2"/>
        <rect width="35" height="9" x="1" y="1" fill="#FFF" rx="1"/>
        <polygon fill="#58A8F7" points="0 0 20 0 20 3 0 3" opacity=".197" transform="translate(4 4)"/>
        <polygon fill="#0D87FF" points="2.5 3 0 0 5 0" transform="translate(27 4)"/>
      </g>
      <g transform="translate(6 79)">
        <rect width="37" height="11" fill="#58A8F7" opacity=".499" rx="2"/>
        <rect width="35" height="9" x="1" y="1" fill="#FFF" rx="1"/>
        <polygon fill="#58A8F7" points="0 0 20 0 20 3 0 3" opacity=".197" transform="translate(4 4)"/>
        <polygon fill="#0D87FF" points="2.5 3 0 0 5 0" transform="translate(27 4)"/>
      </g>
      <g transform="translate(6 95)">
        <rect width="37" height="11" fill="#58A8F7" opacity=".499" rx="2"/>
        <rect width="35" height="9" x="1" y="1" fill="#FFF" rx="1"/>
        <polygon fill="#58A8F7" points="0 0 20 0 20 3 0 3" opacity=".197" transform="translate(4 4)"/>
        <polygon fill="#0D87FF" points="2.5 3 0 0 5 0" transform="translate(27 4)"/>
      </g>
    </g>
  </g>
</svg>
